<svg width="18" height="18" viewBox="0 0 18 18" fill="none" xmlns="http://www.w3.org/2000/svg">
<path fill-rule="evenodd" clip-rule="evenodd" d="M9 18C13.9706 18 18 13.9706 18 9C18 4.02944 13.9706 0 9 0C4.02944 0 0 4.02944 0 9C0 13.9706 4.02944 18 9 18ZM3.99121 14.1722C2.63994 12.8634 1.8 11.0298 1.8 9C1.8 5.02355 5.02355 1.8 9 1.8C12.9764 1.8 16.2 5.02355 16.2 9C16.2 11.0298 15.3601 12.8634 14.0088 14.1722C13.339 12.0437 11.3498 10.5 9 10.5C6.65025 10.5 4.66105 12.0437 3.99121 14.1722ZM11.7 7.2C11.7 8.69117 10.4912 9.9 8.99999 9.9C7.50882 9.9 6.29999 8.69117 6.29999 7.2C6.29999 5.70883 7.50882 4.5 8.99999 4.5C10.4912 4.5 11.7 5.70883 11.7 7.2Z" fill="black"/>
</svg>
